<mxfile host="app.diagrams.net" modified="2021-10-22T11:27:32.215Z" agent="5.0 (Macintosh; Intel Mac OS X 10_15_7) AppleWebKit/537.36 (KHTML, like Gecko) Chrome/94.0.4606.81 Safari/537.36" etag="hYfQMuL0rDtrW2IFwq9m" version="15.5.6" type="github">
  <diagram id="eYpCDCXwS7bAz_BZ9_WE" name="Page-1">
    <mxGraphModel dx="946" dy="614" grid="1" gridSize="10" guides="1" tooltips="1" connect="1" arrows="1" fold="1" page="1" pageScale="1" pageWidth="827" pageHeight="1169" math="0" shadow="0">
      <root>
        <mxCell id="0" />
        <mxCell id="1" parent="0" />
        <mxCell id="7DdsR5SV9_2-UnA475YI-1" value="Working Directory" style="rounded=0;whiteSpace=wrap;html=1;fillColor=#dae8fc;strokeColor=#6c8ebf;verticalAlign=top;" parent="1" vertex="1">
          <mxGeometry x="30" y="140" width="120" height="370" as="geometry" />
        </mxCell>
        <mxCell id="7DdsR5SV9_2-UnA475YI-3" value="Staging Area" style="rounded=0;whiteSpace=wrap;html=1;fillColor=#f8cecc;strokeColor=#b85450;verticalAlign=top;" parent="1" vertex="1">
          <mxGeometry x="190" y="140" width="119" height="370" as="geometry" />
        </mxCell>
        <mxCell id="7DdsR5SV9_2-UnA475YI-4" value="Local Repository" style="rounded=0;whiteSpace=wrap;html=1;fillColor=#e1d5e7;strokeColor=#9673a6;align=center;verticalAlign=top;fontSize=12;horizontal=1;" parent="1" vertex="1">
          <mxGeometry x="355.5" y="140" width="119" height="370" as="geometry" />
        </mxCell>
        <mxCell id="7DdsR5SV9_2-UnA475YI-9" value="git add" style="shape=singleArrow;whiteSpace=wrap;html=1;" parent="1" vertex="1">
          <mxGeometry x="130" y="250" width="100" height="60" as="geometry" />
        </mxCell>
        <mxCell id="7DdsR5SV9_2-UnA475YI-10" value="git commit" style="shape=singleArrow;whiteSpace=wrap;html=1;" parent="1" vertex="1">
          <mxGeometry x="290" y="250" width="100" height="60" as="geometry" />
        </mxCell>
        <mxCell id="7DdsR5SV9_2-UnA475YI-11" value="Remote Repositoy" style="rounded=0;whiteSpace=wrap;html=1;fillColor=#d5e8d4;strokeColor=#82b366;verticalAlign=top;" parent="1" vertex="1">
          <mxGeometry x="520" y="140" width="119" height="370" as="geometry" />
        </mxCell>
        <mxCell id="7DdsR5SV9_2-UnA475YI-13" value="git push" style="shape=singleArrow;whiteSpace=wrap;html=1;" parent="1" vertex="1">
          <mxGeometry x="450" y="250" width="100" height="60" as="geometry" />
        </mxCell>
        <mxCell id="7DdsR5SV9_2-UnA475YI-14" value="master branch" style="text;html=1;resizable=0;autosize=1;align=center;verticalAlign=middle;points=[];fillColor=none;strokeColor=none;rounded=0;fontSize=12;" parent="1" vertex="1">
          <mxGeometry x="370" y="380" width="90" height="20" as="geometry" />
        </mxCell>
        <mxCell id="7DdsR5SV9_2-UnA475YI-17" value="&lt;font color=&quot;#000000&quot;&gt;1&lt;/font&gt;" style="ellipse;whiteSpace=wrap;html=1;fontSize=12;align=center;verticalAlign=middle;fillColor=#ffe6cc;strokeColor=none;fontColor=#FFFFFF;" parent="1" vertex="1">
          <mxGeometry x="392.75" y="200" width="41.5" height="40" as="geometry" />
        </mxCell>
        <mxCell id="7DdsR5SV9_2-UnA475YI-18" value="&lt;font color=&quot;#000000&quot;&gt;2&lt;/font&gt;" style="ellipse;whiteSpace=wrap;html=1;fontSize=12;align=center;verticalAlign=middle;fillColor=#ffe6cc;strokeColor=none;fontColor=#FFFFFF;" parent="1" vertex="1">
          <mxGeometry x="393" y="260" width="41.5" height="40" as="geometry" />
        </mxCell>
        <mxCell id="7DdsR5SV9_2-UnA475YI-19" value="&lt;font color=&quot;#000000&quot;&gt;3&lt;/font&gt;" style="ellipse;whiteSpace=wrap;html=1;fontSize=12;align=center;verticalAlign=middle;fillColor=#ffe6cc;strokeColor=none;fontColor=#FFFFFF;" parent="1" vertex="1">
          <mxGeometry x="393" y="320" width="41.5" height="40" as="geometry" />
        </mxCell>
        <mxCell id="7DdsR5SV9_2-UnA475YI-26" value="" style="line;strokeWidth=2;direction=south;html=1;fontSize=12;fontColor=#000000;align=center;verticalAlign=middle;" parent="1" vertex="1">
          <mxGeometry x="408.75" y="300" width="10" height="20" as="geometry" />
        </mxCell>
        <mxCell id="7DdsR5SV9_2-UnA475YI-29" value="" style="line;strokeWidth=2;direction=south;html=1;fontSize=12;fontColor=#000000;align=center;verticalAlign=middle;" parent="1" vertex="1">
          <mxGeometry x="410" y="240" width="10" height="20" as="geometry" />
        </mxCell>
        <mxCell id="7DdsR5SV9_2-UnA475YI-30" value=".git" style="text;html=1;resizable=0;autosize=1;align=center;verticalAlign=middle;points=[];fillColor=none;strokeColor=none;rounded=0;fontSize=12;fontColor=#000000;" parent="1" vertex="1">
          <mxGeometry x="400" y="460" width="30" height="20" as="geometry" />
        </mxCell>
        <mxCell id="7DdsR5SV9_2-UnA475YI-33" value="GitHub" style="text;html=1;resizable=0;autosize=1;align=center;verticalAlign=middle;points=[];fillColor=none;strokeColor=none;rounded=0;fontSize=12;fontColor=#000000;" parent="1" vertex="1">
          <mxGeometry x="554.5" y="460" width="50" height="20" as="geometry" />
        </mxCell>
      </root>
    </mxGraphModel>
  </diagram>
</mxfile>
